<svg xmlns="http://www.w3.org/2000/svg" xmlns:xlink="http://www.w3.org/1999/xlink" width="512" height="512" x="0" y="0" viewBox="0 0 511 511" style="enable-background:new 0 0 512 512" xml:space="preserve" class=""><g><path d="M433.49 404.056V481c0 2.71-.54 5.3-1.52 7.66-3.01 7.25-10.15 12.34-18.48 12.34H97.51c-11.05 0-20-8.95-20-20V70.61c0-11.05 8.95-20 20-20h70.89M342.6 50.61h70.89c11.05 0 20 8.95 20 20v242.326" style="stroke-width:20;stroke-linecap:round;stroke-linejoin:round;stroke-miterlimit:10;" fill="none" stroke="#8abe1c" stroke-width="20" stroke-linecap="round" stroke-linejoin="round" stroke-miterlimit="10" data-original="#000000" opacity="1" class=""></path><path d="M168.4 90.76h-40.74c-5.52 0-10 4.48-10 10v350.09c0 5.52 4.48 10 10 10h53M342.6 90.76h40.74c5.52 0 10 4.48 10 10v350.09c0 5.52-4.48 10-10 10h-53" style="stroke-width:20;stroke-linecap:round;stroke-linejoin:round;stroke-miterlimit:10;" fill="none" stroke="#8abe1c" stroke-width="20" stroke-linecap="round" stroke-linejoin="round" stroke-miterlimit="10" data-original="#000000" opacity="1" class=""></path><path d="M284.498 39.717c.006-.234.018-.466.018-.702 0-16.024-12.99-29.015-29.015-29.015s-29.015 12.99-29.015 29.015c0 .235.012.468.018.702h-48.098c-5.523 0-10 4.477-10 10v42.446c0 5.523 4.477 10 10 10h154.191c5.523 0 10-4.477 10-10V49.717c0-5.523-4.477-10-10-10h-48.099zM255.501 38.81h0M169.068 169.569l18.874 15.47 19.572-30.427M258.543 150.643h78.291M258.543 188.493h78.291M169.068 254.747l18.874 15.47 19.572-30.427M258.543 235.821h78.291M258.543 273.672h78.291M293.787 367.367c-7.911-1.39-15.796-.565-23.224 2.097a44.741 44.741 0 0 1-30.124 0c-7.428-2.662-15.313-3.487-23.224-2.097-29.475 5.18-48.138 39.145-41.685 75.863 6.453 36.718 35.579 62.284 65.053 57.104 5.359-.942 10.359-2.84 14.917-5.528 4.558 2.689 9.558 4.586 14.917 5.528 29.475 5.18 58.6-20.386 65.053-57.104 6.455-36.718-12.208-70.683-41.683-75.863zM255.501 318.409v51.357" style="stroke-width:20;stroke-linecap:round;stroke-linejoin:round;stroke-miterlimit:10;" fill="none" stroke="#8abe1c" stroke-width="20" stroke-linecap="round" stroke-linejoin="round" stroke-miterlimit="10" data-original="#000000" opacity="1" class=""></path><path d="M297.215 363.684c-12.743 5.682-27.58 3.674-41.714-4.235 3.561-15.8 11.982-28.181 24.724-33.863 12.74-5.681 27.58-3.674 41.714 4.235-3.561 15.8-11.985 28.181-24.724 33.863zM433.49 358.577h0" style="stroke-width:20;stroke-linecap:round;stroke-linejoin:round;stroke-miterlimit:10;" fill="none" stroke="#8abe1c" stroke-width="20" stroke-linecap="round" stroke-linejoin="round" stroke-miterlimit="10" data-original="#000000" opacity="1" class=""></path></g></svg>