<svg xmlns="http://www.w3.org/2000/svg" xmlns:xlink="http://www.w3.org/1999/xlink" width="512" height="512" x="0" y="0" viewBox="0 0 60 60" style="enable-background:new 0 0 512 512" xml:space="preserve" class=""><g><path d="M58.949 12.691a3.09 3.09 0 0 0 .151-4.507l-1.526-1.522 1.542-1.543a2.978 2.978 0 0 0 .005-4.228A2.962 2.962 0 0 0 57 0a2.954 2.954 0 0 0-2.115.886L53.34 2.428 51.816.9a3.037 3.037 0 0 0-2.285-.9 3.1 3.1 0 0 0-2.224 1.053l-2.5 2.858a30 30 0 1 0 11.281 11.278ZM57.682 9.6a1.093 1.093 0 0 1-.05 1.59l-5.2 4.541a1.073 1.073 0 0 1-1.483-.045l-1.2-1.2 6.41-6.412ZM56.3 2.3a.972.972 0 0 1 1.4.005.978.978 0 0 1 0 1.4l-2.243 2.246h-.005L30.706 30.708a1.024 1.024 0 0 1-1.414 0 1 1 0 0 1 0-1.414ZM27.877 32.122a3 3 0 0 0 4.244 0l2.824-2.822a5.042 5.042 0 1 1-4.245-4.245l-2.824 2.823a3 3 0 0 0 0 4.244Zm4.471-8.712A6.872 6.872 0 0 0 30 23a7 7 0 1 0 7 7 6.872 6.872 0 0 0-.41-2.348l3.741-3.742A11.873 11.873 0 0 1 42 30a12 12 0 1 1-12-12 11.862 11.862 0 0 1 6.09 1.67Zm5.2-5.192A13.841 13.841 0 0 0 30 16a14 14 0 1 0 14 14 13.845 13.845 0 0 0-2.217-7.542l3.59-3.592a19.042 19.042 0 1 1-4.238-4.239ZM48.811 2.371A1.082 1.082 0 0 1 49.6 2a1.108 1.108 0 0 1 .806.318l1.524 1.524-6.412 6.409-1.2-1.2a1.076 1.076 0 0 1-.044-1.486ZM58 30A28 28 0 1 1 43.467 5.451l-.7.8a3.09 3.09 0 0 0 .133 4.217l1.2 1.2-1.537 1.532a21.054 21.054 0 1 0 4.237 4.238l1.537-1.538 1.195 1.2a3.088 3.088 0 0 0 4.214.135l.8-.7A28.044 28.044 0 0 1 58 30Z" fill="#ffffff" opacity="1" data-original="#000000" class=""></path></g></svg>